<svg xmlns="http://www.w3.org/2000/svg" xmlns:xlink="http://www.w3.org/1999/xlink" width="3000" zoomAndPan="magnify" viewBox="0 0 2250 2250.000011" height="3000" preserveAspectRatio="xMidYMid meet" version="1.0"><defs><filter x="0%" y="0%" width="100%" height="100%" id="0dda8500a1"><feColorMatrix values="0 0 0 0 1 0 0 0 0 1 0 0 0 0 1 0 0 0 1 0" color-interpolation-filters="sRGB"/></filter><g/><clipPath id="9e6846afdf"><path d="M 0.5 0 L 2249.5 0 L 2249.5 2249 L 0.5 2249 Z M 0.5 0 " clip-rule="nonzero"/></clipPath><mask id="ee0291fafb"><g filter="url(#0dda8500a1)"><rect x="-225" width="2700" fill="#000000" y="-225.000001" height="2700.000013" fill-opacity="0.4784"/></g></mask><clipPath id="a71e4fc93d"><rect x="0" width="1193" y="0" height="1233"/></clipPath><mask id="8bbcafb137"><g filter="url(#0dda8500a1)"><rect x="-225" width="2700" fill="#000000" y="-225.000001" height="2700.000013" fill-opacity="0.4784"/></g></mask><clipPath id="50b8a9e65d"><rect x="0" width="1774" y="0" height="91"/></clipPath></defs><g clip-path="url(#9e6846afdf)"><path fill="#ffffff" d="M 0.5 0 L 2249.5 0 L 2249.5 2256.496094 L 0.5 2256.496094 Z M 0.5 0 " fill-opacity="1" fill-rule="nonzero"/><path fill="#ffffff" d="M 0.5 0 L 2249.5 0 L 2249.5 2249 L 0.5 2249 Z M 0.5 0 " fill-opacity="1" fill-rule="nonzero"/><path fill="#b68e8e" d="M 0.5 0 L 2249.5 0 L 2249.5 2249 L 0.5 2249 Z M 0.5 0 " fill-opacity="1" fill-rule="nonzero"/></g><g mask="url(#ee0291fafb)"><g transform="matrix(1, 0, 0, 1, 530, 508)"><g clip-path="url(#a71e4fc93d)"><g fill="#ffffff" fill-opacity="1"><g transform="translate(1.519512, 926.862331)"><g><path d="M 19.8125 0 L 19.8125 -9 L 37.828125 -16.203125 C 49.835938 -20.410156 57.789062 -26.113281 61.6875 -33.3125 C 65.59375 -40.519531 67.546875 -49.828125 67.546875 -61.234375 L 67.546875 -532.25 C 67.546875 -544.257812 65.59375 -553.863281 61.6875 -561.0625 C 57.789062 -568.269531 49.835938 -573.976562 37.828125 -578.1875 L 19.8125 -585.390625 L 19.8125 -594.390625 L 248.5625 -594.390625 L 248.5625 -585.390625 L 233.25 -579.078125 C 221.84375 -574.878906 214.035156 -569.328125 209.828125 -562.421875 C 205.628906 -555.515625 203.53125 -546.054688 203.53125 -534.046875 L 203.53125 -315.203125 L 418.78125 -315.203125 L 418.78125 -534.046875 C 418.78125 -546.054688 416.828125 -555.515625 412.921875 -562.421875 C 409.015625 -569.328125 401.0625 -574.878906 389.0625 -579.078125 L 372.84375 -585.390625 L 372.84375 -594.390625 L 602.5 -594.390625 L 602.5 -585.390625 L 584.484375 -578.1875 C 573.078125 -573.976562 565.269531 -568.269531 561.0625 -561.0625 C 556.863281 -553.863281 554.765625 -544.257812 554.765625 -532.25 L 554.765625 -61.234375 C 554.765625 -49.828125 556.863281 -40.519531 561.0625 -33.3125 C 565.269531 -26.113281 573.078125 -20.410156 584.484375 -16.203125 L 602.5 -9 L 602.5 0 L 372.84375 0 L 372.84375 -9 L 389.0625 -14.40625 C 401.0625 -19.207031 409.015625 -25.0625 412.921875 -31.96875 C 416.828125 -38.875 418.78125 -48.332031 418.78125 -60.34375 L 418.78125 -297.203125 L 203.53125 -297.203125 L 203.53125 -60.34375 C 203.53125 -38.125 213.4375 -22.8125 233.25 -14.40625 L 248.5625 -9 L 248.5625 0 Z M 19.8125 0 "/></g></g></g><g fill="#ffffff" fill-opacity="1"><g transform="translate(623.822882, 926.862331)"><g><path d="M 140.5 0 L 140.5 -9 L 177.421875 -18.015625 C 202.035156 -23.421875 214.34375 -38.429688 214.34375 -63.046875 L 214.34375 -576.375 L 137.796875 -576.375 C 115.578125 -576.375 99.664062 -570.519531 90.0625 -558.8125 C 80.457031 -547.101562 70.25 -531.046875 59.4375 -510.640625 L 27.015625 -447.59375 L 18.015625 -447.59375 L 22.515625 -594.390625 L 542.15625 -594.390625 L 545.765625 -447.59375 L 536.75 -447.59375 L 504.328125 -510.640625 C 494.117188 -531.046875 484.210938 -547.101562 474.609375 -558.8125 C 465.003906 -570.519531 449.09375 -576.375 426.875 -576.375 L 350.328125 -576.375 L 350.328125 -63.046875 C 350.328125 -38.429688 362.632812 -23.421875 387.25 -18.015625 L 424.171875 -9 L 424.171875 0 Z M 140.5 0 "/></g></g></g></g></g></g><g fill="#000000" fill-opacity="1"><g transform="translate(229.009807, 1230.066406)"><g/></g></g><g fill="#000000" fill-opacity="1"><g transform="translate(329.215197, 1230.066406)"><g><path d="M 45.8125 -41.015625 L 38.1875 -41.203125 C 30.457031 -41.453125 22.003906 -42.078125 12.828125 -43.078125 C 12.703125 -43.078125 12.570312 -43.207031 12.4375 -43.46875 C 12.1875 -43.46875 11.984375 -43.578125 11.828125 -43.796875 C 11.671875 -44.015625 11.65625 -44.46875 11.78125 -45.15625 C 12.476562 -48.050781 13.515625 -49.5625 14.890625 -49.6875 C 22.242188 -50.6875 29.503906 -51.25 36.671875 -51.375 L 41.109375 -51.5625 L 70.140625 -51.5625 C 71.773438 -51.5625 73.347656 -51.4375 74.859375 -51.1875 C 75.984375 -50.875 76.140625 -49.273438 75.328125 -46.390625 C 74.441406 -43.492188 73.40625 -41.890625 72.21875 -41.578125 C 71.65625 -41.453125 71.085938 -41.390625 70.515625 -41.390625 L 66 -41.390625 C 59.582031 -41.140625 52.851562 -41.015625 45.8125 -41.015625 Z M 45.8125 -41.015625 "/></g></g></g><g fill="#000000" fill-opacity="1"><g transform="translate(442.286465, 1230.066406)"><g/></g></g><g fill="#000000" fill-opacity="1"><g transform="translate(542.519935, 1230.066406)"><g><path d="M 473.546875 3.578125 C 473.796875 3.703125 474.0625 3.9375 474.34375 4.28125 C 474.632812 4.632812 474.78125 5.03125 474.78125 5.46875 C 474.78125 6.15625 474.570312 6.703125 474.15625 7.109375 C 473.75 7.523438 473.265625 7.734375 472.703125 7.734375 L 470.8125 7.546875 C 470.5625 7.671875 470.375 7.734375 470.25 7.734375 C 435.363281 5.785156 400.984375 4.601562 367.109375 4.1875 C 333.234375 3.78125 299.078125 3.640625 264.640625 3.765625 C 258.984375 3.765625 253.390625 3.765625 247.859375 3.765625 C 244.398438 3.765625 241.597656 4.425781 239.453125 5.75 C 237.316406 7.070312 235.5 9.398438 234 12.734375 C 225.132812 32.898438 216.082031 53.007812 206.84375 73.0625 C 201.8125 84 196.816406 94.9375 191.859375 105.875 C 188.273438 113.851562 184.753906 121.925781 181.296875 130.09375 C 179.472656 134.125 177.742188 138.148438 176.109375 142.171875 C 175.984375 142.546875 175.765625 142.953125 175.453125 143.390625 C 175.203125 144.523438 174.726562 145.5625 174.03125 146.5 C 172.90625 147.445312 171.445312 148 169.65625 148.15625 C 167.863281 148.3125 166.304688 147.960938 164.984375 147.109375 C 163.660156 146.265625 163.285156 144.804688 163.859375 142.734375 C 165.109375 139.273438 166.488281 135.910156 168 132.640625 C 181.257812 102.347656 194.613281 72.054688 208.0625 41.765625 C 211.207031 34.722656 214.382812 27.585938 217.59375 20.359375 C 218.03125 19.296875 218.5 18.132812 219 16.875 C 220.132812 14.363281 221.265625 11.878906 222.390625 9.421875 C 223.460938 6.660156 222.773438 5.125 220.328125 4.8125 C 202.722656 5.25 185.21875 6.035156 167.8125 7.171875 C 158.695312 7.671875 149.488281 8.140625 140.1875 8.578125 C 134.96875 8.703125 131.320312 11.1875 129.25 16.03125 C 120.132812 35.695312 110.644531 55.210938 100.78125 74.578125 C 95 86.015625 89.125 97.484375 83.15625 108.984375 C 80.957031 113.128906 78.753906 117.273438 76.546875 121.421875 C 75.296875 124.066406 73.914062 126.550781 72.40625 128.875 C 70.894531 130.945312 68.847656 132.21875 66.265625 132.6875 C 63.691406 133.164062 61.445312 133.023438 59.53125 132.265625 C 57.613281 131.515625 56.71875 130.320312 56.84375 128.6875 C 57.539062 125.476562 58.515625 122.429688 59.765625 119.546875 C 69.703125 94.085938 80.546875 69.070312 92.296875 44.5 C 96.441406 35.757812 100.585938 27.023438 104.734375 18.296875 C 105.867188 15.523438 105.113281 13.96875 102.46875 13.625 C 99.832031 13.28125 95.96875 13.390625 90.875 13.953125 C 90.75 13.953125 90.53125 13.953125 90.21875 13.953125 C 81.351562 14.765625 72.253906 16.003906 62.921875 17.671875 C 53.585938 19.335938 47.476562 20.582031 44.59375 21.40625 C 41.695312 22.09375 38.742188 22.4375 35.734375 22.4375 C 35.546875 22.625 35.328125 22.71875 35.078125 22.71875 C 34.816406 22.71875 34.53125 22.625 34.21875 22.4375 L 32.625 22.71875 C 32.050781 22.71875 31.484375 22.5 30.921875 22.0625 C 30.359375 21.625 30.078125 21.054688 30.078125 20.359375 C 30.203125 19.984375 30.4375 19.507812 30.78125 18.9375 C 31.125 18.375 31.515625 17.96875 31.953125 17.71875 C 43.015625 13.820312 54.300781 11.117188 65.8125 9.609375 C 78.945312 7.660156 92.082031 6 105.21875 4.625 C 109.613281 4.5 112.722656 2.484375 114.546875 -1.421875 C 118.378906 -9.273438 122.367188 -17.128906 126.515625 -24.984375 C 131.484375 -34.285156 136.546875 -43.554688 141.703125 -52.796875 C 143.460938 -56.253906 145.253906 -59.710938 147.078125 -63.171875 C 147.328125 -63.484375 147.546875 -63.828125 147.734375 -64.203125 C 148.234375 -65.335938 148.828125 -66.375 149.515625 -67.3125 C 152.972656 -71.332031 155.878906 -75.695312 158.234375 -80.40625 C 160.597656 -85.125 162.753906 -89.96875 164.703125 -94.9375 C 165.640625 -97.007812 166.550781 -99.082031 167.4375 -101.15625 C 184.15625 -138.863281 200.65625 -176.671875 216.9375 -214.578125 C 224.414062 -231.171875 230.164062 -248.265625 234.1875 -265.859375 C 235.820312 -272.203125 236.226562 -278.550781 235.40625 -284.90625 C 234.59375 -288.613281 232.171875 -290.546875 228.140625 -290.703125 C 224.117188 -290.859375 219.25 -289.820312 213.53125 -287.59375 C 207.8125 -285.363281 201.875 -282.660156 195.71875 -279.484375 C 189.5625 -276.304688 184 -273.191406 179.03125 -270.140625 C 174.0625 -267.097656 170.382812 -264.820312 168 -263.3125 C 167.3125 -262.9375 166.84375 -262.65625 166.59375 -262.46875 C 101.726562 -222.113281 43.648438 -173.65625 -7.640625 -117.09375 C -13.296875 -110.875 -18.710938 -104.445312 -23.890625 -97.8125 C -29.078125 -91.175781 -33.84375 -84.179688 -38.1875 -76.828125 C -41.445312 -71.296875 -44.050781 -65.515625 -46 -59.484375 C -48.394531 -50.179688 -47.722656 -43.078125 -43.984375 -38.171875 C -40.242188 -33.273438 -34.632812 -29.992188 -27.15625 -28.328125 C -19.675781 -26.660156 -11.550781 -26.078125 -2.78125 -26.578125 C 5.988281 -27.085938 14.253906 -27.984375 22.015625 -29.265625 C 29.773438 -30.554688 35.789062 -31.832031 40.0625 -33.09375 C 45.15625 -34.34375 50.28125 -35.535156 55.4375 -36.671875 C 59.832031 -37.492188 61.054688 -37.210938 59.109375 -35.828125 C 57.160156 -34.441406 52.945312 -32.535156 46.46875 -30.109375 C 40 -27.691406 32.222656 -25.335938 23.140625 -23.046875 C 14.054688 -20.753906 4.675781 -19.117188 -5 -18.140625 C -14.675781 -17.171875 -23.753906 -17.375 -32.234375 -18.75 C -40.722656 -20.132812 -47.640625 -23.296875 -52.984375 -28.234375 C -58.328125 -33.171875 -61.0625 -40.476562 -61.1875 -50.15625 C -61.1875 -50.40625 -61.1875 -50.65625 -61.1875 -50.90625 C -60.875 -57 -59.425781 -62.8125 -56.84375 -68.34375 C -52.507812 -78.34375 -46.976562 -87.613281 -40.25 -96.15625 C -33.15625 -105.394531 -25.738281 -114.320312 -18 -122.9375 C 31.769531 -177.550781 87.832031 -224.6875 150.1875 -264.34375 C 157.539062 -269.0625 166.085938 -274.21875 175.828125 -279.8125 C 185.566406 -285.40625 195.585938 -290.101562 205.890625 -293.90625 C 216.203125 -297.707031 225.851562 -299.421875 234.84375 -299.046875 C 244.769531 -298.484375 250.207031 -293.296875 251.15625 -283.484375 C 251.59375 -279.835938 251.570312 -276.285156 251.09375 -272.828125 C 250.625 -269.378906 249.953125 -265.925781 249.078125 -262.46875 C 248.953125 -261.96875 248.828125 -261.429688 248.703125 -260.859375 C 246.878906 -252.566406 244.519531 -244.472656 241.625 -236.578125 C 238.738281 -228.691406 235.628906 -220.882812 232.296875 -213.15625 C 203.953125 -145.78125 174.285156 -79.066406 143.296875 -13.015625 C 142.359375 -11.066406 141.476562 -9.050781 140.65625 -6.96875 C 139.28125 -3.769531 139.421875 -1.554688 141.078125 -0.328125 C 142.742188 0.898438 145.539062 1.515625 149.46875 1.515625 C 153.40625 1.515625 158.007812 1.320312 163.28125 0.9375 C 164.101562 0.9375 164.921875 0.84375 165.734375 0.65625 C 169.191406 0.53125 172.710938 0.34375 176.296875 0.09375 C 192.203125 -1.164062 207.976562 -2.015625 223.625 -2.453125 C 226.382812 -2.453125 228.300781 -3.613281 229.375 -5.9375 C 230.632812 -8.445312 231.828125 -10.992188 232.953125 -13.578125 C 253.378906 -58.515625 274.625 -103.039062 296.6875 -147.15625 C 318.75 -191.28125 341.125 -235.25 363.8125 -279.0625 C 364.0625 -279.625 364.34375 -280.1875 364.65625 -280.75 C 365.476562 -282.820312 366.707031 -284.550781 368.34375 -285.9375 C 369.59375 -286.632812 371.050781 -286.984375 372.71875 -286.984375 C 374.382812 -286.984375 375.796875 -286.601562 376.953125 -285.84375 C 378.117188 -285.09375 378.359375 -283.742188 377.671875 -281.796875 C 377.546875 -281.347656 377.359375 -280.875 377.109375 -280.375 C 375.285156 -275.664062 373.273438 -271.015625 371.078125 -266.421875 C 359.890625 -243.921875 348.609375 -221.453125 337.234375 -199.015625 C 333.265625 -191.035156 329.269531 -183.023438 325.25 -174.984375 C 298.851562 -122.304688 272.992188 -69.351562 247.671875 -16.125 C 247.222656 -15.113281 246.75 -14.140625 246.25 -13.203125 C 245.6875 -12.066406 245.179688 -10.96875 244.734375 -9.90625 C 243.234375 -6.570312 243.140625 -4.414062 244.453125 -3.4375 C 245.773438 -2.46875 247.882812 -2.140625 250.78125 -2.453125 C 281.070312 -4.085938 311.945312 -4.445312 343.40625 -3.53125 C 374.863281 -2.625 406.082031 -1.351562 437.0625 0.28125 C 446.550781 0.71875 456.007812 1.191406 465.4375 1.703125 C 465.882812 1.703125 466.234375 1.703125 466.484375 1.703125 C 467.734375 1.703125 468.972656 1.8125 470.203125 2.03125 C 471.429688 2.25 472.546875 2.765625 473.546875 3.578125 Z M 473.546875 3.578125 "/></g></g></g><g fill="#000000" fill-opacity="1"><g transform="translate(870.139315, 1230.066406)"><g><path d="M 68.390625 -48.03125 C 69.867188 -47.1875 69.984375 -45.128906 68.734375 -41.859375 C 66.910156 -39.472656 64.957031 -37.238281 62.875 -35.15625 C 60.800781 -33.082031 58.539062 -31.234375 56.09375 -29.609375 C 55.90625 -29.609375 55.8125 -29.546875 55.8125 -29.421875 C 54.175781 -28.285156 52.445312 -27.304688 50.625 -26.484375 C 35.601562 -21.085938 27.9375 -24.265625 27.625 -36.015625 C 21.53125 -30.734375 17.441406 -27.492188 15.359375 -26.296875 C 10.398438 -23.347656 5.03125 -22.03125 -0.75 -22.34375 C -5.03125 -22.59375 -7.9375 -23.894531 -9.46875 -26.25 C -11.007812 -28.613281 -10.867188 -31.804688 -9.046875 -35.828125 C -6.285156 -42.171875 -2.359375 -47.828125 2.734375 -52.796875 C 8.703125 -58.328125 15.332031 -62.757812 22.625 -66.09375 C 26.519531 -68.039062 30.601562 -68.789062 34.875 -68.34375 C 39.15625 -68.09375 41.734375 -65.675781 42.609375 -61.09375 C 42.984375 -59.707031 42.640625 -58.484375 41.578125 -57.421875 C 40.191406 -56.160156 38.585938 -55.875 36.765625 -56.5625 C 36.640625 -56.5625 36.46875 -56.59375 36.25 -56.65625 C 36.03125 -56.71875 35.859375 -56.8125 35.734375 -56.9375 C 33.910156 -59.457031 32.070312 -60.507812 30.21875 -60.09375 C 28.363281 -59.6875 26.398438 -58.859375 24.328125 -57.609375 C 14.648438 -51.953125 7.453125 -44.0625 2.734375 -33.9375 C 2.484375 -33.5 2.328125 -33.007812 2.265625 -32.46875 C 2.203125 -31.9375 2.359375 -31.515625 2.734375 -31.203125 C 3.867188 -30.828125 5.125 -30.90625 6.5 -31.4375 C 7.882812 -31.976562 9.269531 -32.765625 10.65625 -33.796875 C 12.039062 -34.835938 13.203125 -35.703125 14.140625 -36.390625 C 14.265625 -36.578125 14.328125 -36.671875 14.328125 -36.671875 C 18.921875 -40.503906 23.414062 -44.429688 27.8125 -48.453125 C 29.757812 -50.523438 32.179688 -51.691406 35.078125 -51.953125 C 39.222656 -51.953125 40.945312 -50.097656 40.25 -46.390625 C 39.875 -45.003906 39.46875 -43.617188 39.03125 -42.234375 C 37.394531 -36.265625 37.332031 -32.757812 38.84375 -31.71875 C 40.351562 -30.6875 42.660156 -30.6875 45.765625 -31.71875 C 48.878906 -32.757812 51.988281 -34.738281 55.09375 -37.65625 C 58.207031 -40.582031 60.832031 -43.253906 62.96875 -45.671875 C 65.113281 -48.097656 66.921875 -48.882812 68.390625 -48.03125 Z M 68.390625 -48.03125 "/></g></g></g><g fill="#000000" fill-opacity="1"><g transform="translate(961.605446, 1230.066406)"><g><path d="M 74.671875 -47.046875 C 75.671875 -45.785156 74.410156 -43.488281 70.890625 -40.15625 C 67.367188 -36.832031 63.628906 -34.035156 59.671875 -31.765625 C 55.710938 -29.503906 51.125 -27.242188 45.90625 -24.984375 C 42.457031 -23.472656 38.78125 -22.96875 34.875 -23.46875 C 30.976562 -23.976562 29.03125 -26.335938 29.03125 -30.546875 C 29.03125 -34.753906 30.003906 -38.929688 31.953125 -43.078125 C 33.898438 -47.359375 34.320312 -49.5625 33.21875 -49.6875 C 32.125 -49.8125 29.847656 -48.773438 26.390625 -46.578125 C 17.410156 -40.660156 9.050781 -33.898438 1.3125 -26.296875 C -0.757812 -23.785156 -3.394531 -22.40625 -6.59375 -22.15625 C -8.226562 -22.15625 -9.5 -22.671875 -10.40625 -23.703125 C -11.320312 -24.742188 -11.4375 -25.863281 -10.75 -27.0625 C -5.21875 -37.300781 0.375 -47.421875 6.03125 -57.421875 C 7.289062 -59.492188 9.175781 -60.78125 11.6875 -61.28125 C 12.757812 -61.46875 13.75 -61.132812 14.65625 -60.28125 C 15.570312 -59.4375 16.03125 -58.484375 16.03125 -57.421875 C 15.90625 -56.410156 15.492188 -55.210938 14.796875 -53.828125 C 14.484375 -53.015625 14.1875 -52.226562 13.90625 -51.46875 C 13.625 -50.71875 13.53125 -50.085938 13.625 -49.578125 C 13.71875 -49.078125 14.109375 -48.925781 14.796875 -49.125 C 15.742188 -49.625 16.6875 -50.15625 17.625 -50.71875 C 20.019531 -52.101562 22.316406 -53.425781 24.515625 -54.6875 C 26.460938 -55.8125 28.503906 -56.8125 30.640625 -57.6875 C 32.773438 -58.570312 35.003906 -59.171875 37.328125 -59.484375 C 41.097656 -59.734375 43.769531 -58.882812 45.34375 -56.9375 C 46.914062 -54.988281 47.101562 -52.285156 45.90625 -48.828125 C 44.65625 -45.691406 43.335938 -42.582031 41.953125 -39.5 C 40.253906 -36.613281 39.96875 -34.414062 41.09375 -32.90625 C 42.226562 -31.394531 47.476562 -33.125 56.84375 -38.09375 L 63.921875 -42.234375 C 70.578125 -46.503906 74.160156 -48.109375 74.671875 -47.046875 Z M 74.671875 -47.046875 "/></g></g></g><g fill="#000000" fill-opacity="1"><g transform="translate(1059.670672, 1230.066406)"><g><path d="M 45.625 -44.96875 C 47.695312 -47.039062 49.425781 -48.203125 50.8125 -48.453125 C 52.195312 -48.703125 53.09375 -48.484375 53.5 -47.796875 C 53.90625 -47.109375 53.640625 -46.164062 52.703125 -44.96875 C 47.171875 -38.300781 40.976562 -32.546875 34.125 -27.703125 C 27.28125 -22.867188 20.226562 -20.078125 12.96875 -19.328125 C 5.707031 -18.578125 1.320312 -22.535156 -0.1875 -31.203125 C -1.320312 -39.816406 3.890625 -57.351562 15.453125 -83.8125 C 27.023438 -110.269531 36.171875 -131.953125 42.890625 -148.859375 C 43.460938 -150.367188 44.3125 -151.691406 45.4375 -152.828125 C 46.945312 -154.328125 48.738281 -154.671875 50.8125 -153.859375 C 51.507812 -153.546875 52.203125 -153.039062 52.890625 -152.34375 C 53.578125 -151.65625 53.796875 -150.429688 53.546875 -148.671875 C 23.816406 -78.148438 9.421875 -39.8125 10.359375 -33.65625 C 11.304688 -27.5 15.285156 -25.972656 22.296875 -29.078125 C 29.304688 -32.191406 34.710938 -35.367188 38.515625 -38.609375 C 42.316406 -41.847656 44.6875 -43.96875 45.625 -44.96875 Z M 45.625 -44.96875 "/></g></g></g><g fill="#000000" fill-opacity="1"><g transform="translate(1135.676109, 1230.066406)"><g><path d="M 37.46875 -39.734375 C 34.113281 -35.742188 30.140625 -32.082031 25.546875 -28.75 C 20.960938 -25.414062 15.773438 -23.164062 9.984375 -22 C 4.203125 -20.84375 -0.285156 -21.269531 -3.484375 -23.28125 C -6.691406 -25.289062 -7.320312 -29.753906 -5.375 -36.671875 C -2.863281 -43.835938 0.59375 -50.65625 5 -57.125 C 6 -58.507812 7.441406 -59.484375 9.328125 -60.046875 C 10.710938 -60.367188 11.921875 -60.132812 12.953125 -59.34375 C 13.992188 -58.5625 14.390625 -57.570312 14.140625 -56.375 C 13.203125 -54.113281 12.164062 -51.851562 11.03125 -49.59375 C 9.894531 -47.332031 9.140625 -45.851562 8.765625 -45.15625 C 6.566406 -41.132812 5.023438 -36.925781 4.140625 -32.53125 C 4.140625 -30.007812 7.503906 -29.847656 14.234375 -32.046875 C 20.960938 -34.253906 27.5 -38.296875 33.84375 -44.171875 C 40.1875 -50.046875 43.21875 -51.769531 42.9375 -49.34375 C 42.65625 -46.925781 40.832031 -43.722656 37.46875 -39.734375 Z M 21.03125 -71.265625 C 20.707031 -71.015625 20.054688 -70.71875 19.078125 -70.375 C 18.109375 -70.03125 17.070312 -69.78125 15.96875 -69.625 C 14.875 -69.46875 14.007812 -69.640625 13.375 -70.140625 C 12.75 -70.640625 12.722656 -71.644531 13.296875 -73.15625 C 14.296875 -75.800781 15.34375 -78.113281 16.4375 -80.09375 C 17.539062 -82.070312 18.972656 -84.253906 20.734375 -86.640625 C 21.867188 -87.710938 23.09375 -88.296875 24.40625 -88.390625 C 25.726562 -88.484375 26.828125 -88.132812 27.703125 -87.34375 C 28.585938 -86.5625 28.84375 -85.476562 28.46875 -84.09375 C 27.082031 -79.125 24.601562 -74.847656 21.03125 -71.265625 Z M 21.03125 -71.265625 "/></g></g></g><g fill="#000000" fill-opacity="1"><g transform="translate(1201.405774, 1230.066406)"><g/></g></g><g fill="#000000" fill-opacity="1"><g transform="translate(1301.639271, 1230.066406)"><g><path d="M 86.734375 -228.53125 C 87.992188 -228.53125 89.109375 -228.101562 90.078125 -227.25 C 91.054688 -226.40625 91.609375 -225.445312 91.734375 -224.375 C 91.859375 -222.300781 91.796875 -220.289062 91.546875 -218.34375 C 91.421875 -216.269531 91.132812 -214.320312 90.6875 -212.5 C 90.5625 -211.6875 90.5 -210.929688 90.5 -210.234375 C 85.539062 -187.671875 79.320312 -165.609375 71.84375 -144.046875 C 71.144531 -141.597656 70.796875 -139.117188 70.796875 -136.609375 C 71.046875 -133.585938 70.484375 -130.757812 69.109375 -128.125 C 65.960938 -123.40625 63.414062 -118.503906 61.46875 -113.421875 C 48.707031 -77.023438 35.003906 -41.070312 20.359375 -5.5625 C 8.046875 24.851562 -5.90625 54.582031 -21.5 83.625 C -25.769531 91.226562 -30.328125 98.769531 -35.171875 106.25 C -37.554688 109.457031 -40.191406 112.441406 -43.078125 115.203125 C -45.722656 117.398438 -48.773438 118.03125 -52.234375 117.09375 C -55.816406 116.207031 -57.546875 113.910156 -57.421875 110.203125 C -56.972656 105.804688 -55.992188 101.535156 -54.484375 97.390625 C -45.503906 72.492188 -35.546875 48.015625 -24.609375 23.953125 C -4.554688 -21.679688 18.726562 -65.519531 45.25 -107.5625 C 50.09375 -115.613281 53.832031 -123.972656 56.46875 -132.640625 C 61.1875 -146.785156 65.617188 -160.972656 69.765625 -175.203125 C 73.910156 -189.441406 77.492188 -203.820312 80.515625 -218.34375 C 80.953125 -220.664062 81.515625 -223.023438 82.203125 -225.421875 C 83.023438 -227.492188 84.535156 -228.53125 86.734375 -228.53125 Z M -37.703125 90.6875 C -24.828125 67.1875 -13.109375 43.242188 -2.546875 18.859375 C 8.015625 -5.523438 17.726562 -30.382812 26.59375 -55.71875 C 26.457031 -55.59375 26.328125 -55.375 26.203125 -55.0625 C 25.765625 -54.8125 25.359375 -54.460938 24.984375 -54.015625 C 23.972656 -52.253906 23 -50.523438 22.0625 -48.828125 C 10.4375 -27.273438 -0.320312 -5.296875 -10.21875 17.109375 C -20.125 39.515625 -29.570312 62.03125 -38.5625 84.65625 C -38.6875 84.96875 -38.75 85.1875 -38.75 85.3125 C -39.125 86.007812 -39.3125 86.8125 -39.3125 87.71875 C -39.3125 88.632812 -38.773438 89.625 -37.703125 90.6875 Z M 500.515625 -233.71875 C 500.515625 -233.144531 500.242188 -232.578125 499.703125 -232.015625 C 499.171875 -231.453125 498.5625 -231.023438 497.875 -230.734375 C 497.1875 -230.453125 496.554688 -230.46875 495.984375 -230.78125 C 492.398438 -232.988281 488.597656 -234.46875 484.578125 -235.21875 C 480.554688 -235.96875 476.535156 -236.566406 472.515625 -237.015625 C 469.492188 -237.140625 466.539062 -237.484375 463.65625 -238.046875 C 452.84375 -239.679688 442.03125 -241.066406 431.21875 -242.203125 C 395.707031 -245.085938 360.101562 -246.65625 324.40625 -246.90625 C 290.03125 -247.34375 255.617188 -246.585938 221.171875 -244.640625 C 182.328125 -242.691406 143.546875 -239.800781 104.828125 -235.96875 C 69.253906 -232.769531 33.773438 -228.90625 -1.609375 -224.375 C -3.804688 -224.0625 -6.097656 -223.78125 -8.484375 -223.53125 C -21.992188 -221.707031 -35.488281 -219.757812 -48.96875 -217.6875 C -62.457031 -215.613281 -75.925781 -213.066406 -89.375 -210.046875 C -90.445312 -209.734375 -91.546875 -209.453125 -92.671875 -209.203125 C -97.890625 -207.941406 -103.140625 -206.554688 -108.421875 -205.046875 C -113.703125 -203.535156 -118.757812 -201.523438 -123.59375 -199.015625 C -124.289062 -198.640625 -125.046875 -198.359375 -125.859375 -198.171875 C -126.929688 -198.046875 -127.953125 -198.09375 -128.921875 -198.3125 C -129.898438 -198.53125 -130.671875 -199.109375 -131.234375 -200.046875 C -131.796875 -201.054688 -131.875 -202 -131.46875 -202.875 C -131.0625 -203.757812 -130.351562 -204.484375 -129.34375 -205.046875 C -126.207031 -206.679688 -122.910156 -208.128906 -119.453125 -209.390625 C -110.835938 -212.273438 -102.144531 -214.722656 -93.375 -216.734375 C -84.613281 -218.753906 -75.800781 -220.515625 -66.9375 -222.015625 C -41.351562 -226.359375 -15.773438 -230.144531 9.796875 -233.375 C 35.378906 -236.613281 61.085938 -239.488281 86.921875 -242 C 123.191406 -245.707031 159.488281 -248.664062 195.8125 -250.875 C 227.488281 -252.945312 259.164062 -254.140625 290.84375 -254.453125 C 314.09375 -254.703125 337.328125 -254.476562 360.546875 -253.78125 C 383.773438 -253.09375 406.988281 -251.710938 430.1875 -249.640625 C 451.363281 -247.441406 472.382812 -244.207031 493.25 -239.9375 C 495.195312 -239.5 496.988281 -238.804688 498.625 -237.859375 C 500.007812 -236.847656 500.640625 -235.46875 500.515625 -233.71875 Z M 500.515625 -233.71875 "/></g></g></g><g fill="#000000" fill-opacity="1"><g transform="translate(1399.704534, 1230.066406)"><g><path d="M 76.546875 -43.9375 C 75.421875 -42.925781 74.226562 -42.015625 72.96875 -41.203125 C 68.945312 -38.679688 65.316406 -36.695312 62.078125 -35.25 C 58.835938 -33.8125 55.019531 -32.335938 50.625 -30.828125 C 44.09375 -28.878906 39.898438 -29.316406 38.046875 -32.140625 C 36.191406 -34.972656 35.890625 -38.90625 37.140625 -43.9375 C 38.898438 -51.101562 39.921875 -56.347656 40.203125 -59.671875 C 40.492188 -63.003906 39.394531 -64.148438 36.90625 -63.109375 C 34.425781 -62.078125 29.914062 -58.640625 23.375 -52.796875 C 14.257812 -44.941406 6.46875 -35.953125 0 -25.828125 C -0.8125 -24.441406 -1.816406 -23.3125 -3.015625 -22.4375 C -4.210938 -21.5625 -5.691406 -21.125 -7.453125 -21.125 C -9.148438 -21.125 -10.375 -21.5625 -11.125 -22.4375 C -11.875 -23.3125 -11.90625 -24.503906 -11.21875 -26.015625 C -7.507812 -34.191406 -3.707031 -42.300781 0.1875 -50.34375 C 6.851562 -64.289062 13.421875 -78.179688 19.890625 -92.015625 C 24.734375 -102.378906 29.507812 -112.75 34.21875 -123.125 C 37.113281 -129.21875 39.941406 -135.316406 42.703125 -141.421875 C 42.953125 -141.921875 43.238281 -142.453125 43.5625 -143.015625 C 43.8125 -143.703125 44.109375 -144.390625 44.453125 -145.078125 C 44.796875 -145.773438 45.1875 -146.535156 45.625 -147.359375 C 46.007812 -148.046875 46.71875 -148.609375 47.75 -149.046875 C 48.789062 -149.492188 49.828125 -149.78125 50.859375 -149.90625 C 51.898438 -150.03125 52.703125 -149.96875 53.265625 -149.71875 C 54.078125 -149.144531 54.53125 -148.546875 54.625 -147.921875 C 54.726562 -147.296875 54.617188 -146.632812 54.296875 -145.9375 C 54.171875 -145.8125 54.109375 -145.59375 54.109375 -145.28125 C 52.859375 -141.570312 51.539062 -137.988281 50.15625 -134.53125 C 42.175781 -115.300781 33.472656 -96.351562 24.046875 -77.6875 C 23.347656 -76.425781 22.53125 -74.914062 21.59375 -73.15625 C 20.207031 -70.644531 18.914062 -68.175781 17.71875 -65.75 C 16.53125 -63.332031 16.140625 -61.710938 16.546875 -60.890625 C 16.953125 -60.078125 18.820312 -60.707031 22.15625 -62.78125 C 23.15625 -63.476562 24.066406 -64.171875 24.890625 -64.859375 C 27.523438 -66.617188 30.132812 -68.285156 32.71875 -69.859375 C 34.976562 -71.367188 37.488281 -72.1875 40.25 -72.3125 C 46.851562 -72.75 50.5625 -69.765625 51.375 -63.359375 C 51.695312 -60.773438 51.601562 -58.226562 51.09375 -55.71875 C 50.59375 -53.207031 50 -50.722656 49.3125 -48.265625 C 49.1875 -47.578125 49.054688 -46.890625 48.921875 -46.203125 C 47.796875 -41.921875 48.097656 -39.46875 49.828125 -38.84375 C 51.554688 -38.21875 53.972656 -38.5625 57.078125 -39.875 C 60.191406 -41.195312 63.351562 -42.800781 66.5625 -44.6875 C 68.757812 -45.820312 70.691406 -46.796875 72.359375 -47.609375 C 74.023438 -48.421875 75.265625 -48.765625 76.078125 -48.640625 C 77.585938 -48.390625 78.28125 -47.773438 78.15625 -46.796875 C 78.03125 -45.828125 77.492188 -44.875 76.546875 -43.9375 Z M 76.546875 -43.9375 "/></g></g></g><g fill="#000000" fill-opacity="1"><g transform="translate(1500.597983, 1230.066406)"><g><path d="M 53.734375 -36.203125 C 50.085938 -32.617188 45.84375 -29.550781 41 -27 C 36.164062 -24.457031 32.113281 -22.789062 28.84375 -22 C 25.582031 -21.21875 22.222656 -20.765625 18.765625 -20.640625 C 13.234375 -20.390625 8.140625 -21.144531 3.484375 -22.90625 C -4.117188 -25.988281 -6.757812 -31.863281 -4.4375 -40.53125 C -2.226562 -48.007812 2.234375 -53.851562 8.953125 -58.0625 C 15.679688 -62.28125 22.628906 -64.328125 29.796875 -64.203125 C 29.796875 -64.203125 29.859375 -64.203125 29.984375 -64.203125 C 31.804688 -64.328125 33.535156 -64.203125 35.171875 -63.828125 C 37.929688 -62.816406 39.6875 -61.179688 40.4375 -58.921875 C 41.195312 -56.660156 40.695312 -54.144531 38.9375 -51.375 C 34.914062 -45.28125 29.445312 -41.890625 22.53125 -41.203125 C 17.945312 -40.753906 13.515625 -40.972656 9.234375 -41.859375 C 8.421875 -41.984375 7.695312 -41.757812 7.0625 -41.1875 C 6.4375 -40.625 6.0625 -39.9375 5.9375 -39.125 C 4.675781 -33.71875 6.34375 -30.257812 10.9375 -28.75 C 16.59375 -26.800781 22.46875 -26.800781 28.5625 -28.75 C 35.601562 -30.945312 42.296875 -35.09375 48.640625 -41.1875 C 54.992188 -47.289062 58.65625 -50.140625 59.625 -49.734375 C 60.601562 -49.328125 60.90625 -48.148438 60.53125 -46.203125 C 59.644531 -43.117188 57.378906 -39.785156 53.734375 -36.203125 Z M 13.578125 -51.375 C 13.203125 -50.9375 12.929688 -50.453125 12.765625 -49.921875 C 12.609375 -49.390625 12.816406 -48.898438 13.390625 -48.453125 C 15.585938 -47.203125 17.972656 -46.75 20.546875 -47.09375 C 23.128906 -47.4375 25.316406 -48.410156 27.109375 -50.015625 C 28.898438 -51.617188 29.671875 -53.582031 29.421875 -55.90625 C 29.222656 -56.71875 28.78125 -57.234375 28.09375 -57.453125 C 27.40625 -57.679688 26.710938 -57.734375 26.015625 -57.609375 C 21.367188 -56.785156 17.222656 -54.707031 13.578125 -51.375 Z M 13.578125 -51.375 "/></g></g></g><g fill="#000000" fill-opacity="1"><g transform="translate(1584.42802, 1230.066406)"><g><path d="M 74 -49.15625 C 74.820312 -47.5625 73.472656 -45.113281 69.953125 -41.8125 C 66.429688 -38.507812 60.238281 -34.503906 51.375 -29.796875 C 48.050781 -28.410156 45.632812 -27.304688 44.125 -26.484375 C 42.613281 -25.671875 41.507812 -24.632812 40.8125 -23.375 C 40.125 -22.125 39.375 -20.175781 38.5625 -17.53125 C 37.863281 -15.582031 36.953125 -12.972656 35.828125 -9.703125 C 34.316406 -5.679688 32.804688 -1.535156 31.296875 2.734375 C 28.535156 11.472656 25.253906 20.097656 21.453125 28.609375 C 17.648438 37.128906 12.726562 44.5625 6.6875 50.90625 C 0.65625 57.257812 -7.101562 61.472656 -16.59375 63.546875 C -26.144531 65.367188 -35.382812 65.648438 -44.3125 64.390625 C -53.238281 63.128906 -61.972656 60.644531 -70.515625 56.9375 C -73.972656 55.375 -77.085938 53.300781 -79.859375 50.71875 C -84.441406 46.007812 -84.785156 40.726562 -80.890625 34.875 C -78.816406 31.988281 -76.394531 29.382812 -73.625 27.0625 C -68.09375 22.59375 -62.3125 18.503906 -56.28125 14.796875 C -45.03125 8.015625 -33.523438 1.796875 -21.765625 -3.859375 C -10.015625 -9.515625 1.859375 -14.984375 13.859375 -20.265625 C 14.671875 -20.640625 15.582031 -21.050781 16.59375 -21.5 C 19.863281 -23 23.226562 -24.503906 26.6875 -26.015625 C 29.070312 -26.898438 30.671875 -28.503906 31.484375 -30.828125 C 31.734375 -31.640625 31.796875 -32.394531 31.671875 -33.09375 C 31.546875 -33.53125 31.3125 -33.78125 30.96875 -33.84375 C 30.625 -33.90625 30.234375 -33.8125 29.796875 -33.5625 C 28.597656 -32.875 27.367188 -32.085938 26.109375 -31.203125 C 25.421875 -30.828125 24.671875 -30.359375 23.859375 -29.796875 C 19.515625 -27.273438 15.019531 -26.171875 10.375 -26.484375 C 3.019531 -26.484375 -0.71875 -29.785156 -0.84375 -36.390625 C -0.96875 -41.796875 -0.0390625 -46.914062 1.9375 -51.75 C 3.914062 -56.59375 6.726562 -61.148438 10.375 -65.421875 C 10.75 -65.867188 11.28125 -66.234375 11.96875 -66.515625 C 12.664062 -66.796875 13.359375 -67 14.046875 -67.125 C 14.171875 -67.125 14.328125 -67.1875 14.515625 -67.3125 C 15.898438 -67.4375 16.96875 -67.085938 17.71875 -66.265625 C 18.476562 -65.453125 18.640625 -64.421875 18.203125 -63.171875 C 17.378906 -61.410156 16.5625 -59.617188 15.75 -57.796875 C 15.050781 -56.410156 14.359375 -55.023438 13.671875 -53.640625 C 10.898438 -48.234375 9.644531 -42.578125 9.90625 -36.671875 C 10.03125 -35.410156 10.578125 -34.5 11.546875 -33.9375 C 12.523438 -33.375 13.640625 -33.375 14.890625 -33.9375 C 18.597656 -35.445312 21.835938 -37.582031 24.609375 -40.34375 C 32.085938 -47.132812 38.242188 -54.960938 43.078125 -63.828125 C 43.773438 -65.078125 44.578125 -66.140625 45.484375 -67.015625 C 46.398438 -67.898438 47.613281 -68.40625 49.125 -68.53125 C 51.070312 -68.726562 52.5625 -68.304688 53.59375 -67.265625 C 54.632812 -66.222656 54.929688 -64.859375 54.484375 -63.171875 C 52.734375 -57.515625 50.878906 -51.921875 48.921875 -46.390625 C 48.796875 -45.941406 48.640625 -45.53125 48.453125 -45.15625 C 47.953125 -43.894531 47.484375 -42.570312 47.046875 -41.1875 C 46.609375 -39.8125 46.390625 -38.601562 46.390625 -37.5625 C 46.390625 -36.53125 46.828125 -36.015625 47.703125 -36.015625 C 51.160156 -36.703125 56.203125 -39.460938 62.828125 -44.296875 C 69.460938 -49.140625 73.1875 -50.757812 74 -49.15625 Z M 24.609375 -11.3125 C 24.609375 -11.625 24.703125 -11.90625 24.890625 -12.15625 C 25.265625 -12.851562 25.484375 -13.609375 25.546875 -14.421875 C 25.609375 -15.242188 25.390625 -16.09375 24.890625 -16.96875 C 24.453125 -16.96875 24.109375 -16.96875 23.859375 -16.96875 C 22.972656 -16.78125 22.1875 -16.5625 21.5 -16.3125 C 20.113281 -15.75 18.726562 -15.117188 17.34375 -14.421875 C 6.28125 -9.328125 -4.78125 -4.082031 -15.84375 1.3125 C -26.90625 6.71875 -37.742188 12.472656 -48.359375 18.578125 C -54.835938 22.285156 -60.9375 26.617188 -66.65625 31.578125 C -71.300781 35.734375 -73.53125 39.363281 -73.34375 42.46875 C -73.15625 45.582031 -70.421875 48.394531 -65.140625 50.90625 C -53.140625 57.132812 -40.222656 59.679688 -26.390625 58.546875 C -16.960938 57.597656 -9.3125 54.046875 -3.4375 47.890625 C 2.4375 41.734375 7.242188 34.363281 10.984375 25.78125 C 14.722656 17.207031 17.972656 8.644531 20.734375 0.09375 C 21.929688 -3.925781 23.222656 -7.726562 24.609375 -11.3125 Z M 24.609375 -11.3125 "/></g></g></g><g fill="#000000" fill-opacity="1"><g transform="translate(1682.021882, 1230.066406)"><g><path d="M 45.625 -47.796875 C 35.695312 -44.085938 28.535156 -41.070312 24.140625 -38.75 C 20.929688 -37.175781 19.085938 -35.867188 18.609375 -34.828125 C 18.140625 -33.796875 18.503906 -31.894531 19.703125 -29.125 C 19.703125 -29 19.796875 -28.8125 19.984375 -28.5625 C 21.367188 -25.226562 22.1875 -21.773438 22.4375 -18.203125 C 22.875 -10.972656 16.726562 -5.910156 4 -3.015625 C -8.71875 -0.128906 -17.226562 -0.0351562 -21.53125 -2.734375 C -25.84375 -5.429688 -27.164062 -8.851562 -25.5 -13 C -23.832031 -17.15625 -19.507812 -21.367188 -12.53125 -25.640625 C -5.5625 -29.910156 -0.898438 -32.988281 1.453125 -34.875 C 3.816406 -36.757812 4.523438 -38.867188 3.578125 -41.203125 C 3.265625 -42.015625 2.921875 -42.832031 2.546875 -43.65625 C 1.722656 -45.601562 0.875 -47.613281 0 -49.6875 C -1.632812 -53.457031 -2.34375 -57.164062 -2.125 -60.8125 C -1.90625 -64.457031 -0.554688 -67.519531 1.921875 -70 C 4.410156 -72.476562 8.265625 -73.8125 13.484375 -74 C 16.429688 -74.132812 19.066406 -73.742188 21.390625 -72.828125 C 23.722656 -71.921875 25.582031 -70.238281 26.96875 -67.78125 C 28.09375 -66.082031 27.742188 -64.546875 25.921875 -63.171875 C 24.734375 -62.222656 23.445312 -62.09375 22.0625 -62.78125 C 21.175781 -63.164062 20.328125 -63.703125 19.515625 -64.390625 C 19.515625 -64.578125 19.515625 -64.671875 19.515625 -64.671875 C 19.140625 -64.921875 18.796875 -65.171875 18.484375 -65.421875 C 18.097656 -65.992188 17.6875 -66.4375 17.25 -66.75 C 15.613281 -67.9375 13.960938 -68.296875 12.296875 -67.828125 C 10.640625 -67.359375 9.398438 -66.085938 8.578125 -64.015625 C 8.015625 -62.378906 7.734375 -60.710938 7.734375 -59.015625 C 7.859375 -56.941406 8.328125 -54.929688 9.140625 -52.984375 C 9.710938 -51.785156 10.21875 -50.6875 10.65625 -49.6875 C 11.71875 -46.914062 12.59375 -45.007812 13.28125 -43.96875 C 13.976562 -42.9375 14.8125 -42.5 15.78125 -42.65625 C 16.757812 -42.8125 25.671875 -46.003906 42.515625 -52.234375 C 46.160156 -53.421875 47.195312 -51.941406 45.625 -47.796875 Z M 4.8125 -11.78125 C 9.207031 -13.289062 11.0625 -16.242188 10.375 -20.640625 C 10.375 -20.960938 10.3125 -21.3125 10.1875 -21.6875 C 9.9375 -24.070312 9.429688 -25.90625 8.671875 -27.1875 C 7.921875 -28.476562 6.222656 -28.4375 3.578125 -27.0625 C -2.953125 -23.351562 -8.984375 -19.015625 -14.515625 -14.046875 C -14.890625 -13.609375 -15.238281 -13.203125 -15.5625 -12.828125 C -15.5625 -12.828125 -15.625 -12.726562 -15.75 -12.53125 C -16.125 -12.03125 -16.1875 -11.46875 -15.9375 -10.84375 C -15.6875 -10.21875 -15.117188 -9.90625 -14.234375 -9.90625 C -7.765625 -8.894531 -1.414062 -9.519531 4.8125 -11.78125 Z M 4.8125 -11.78125 "/></g></g></g><g fill="#000000" fill-opacity="1"><g transform="translate(1752.748044, 1230.066406)"><g><path d="M 53.734375 -36.203125 C 50.085938 -32.617188 45.84375 -29.550781 41 -27 C 36.164062 -24.457031 32.113281 -22.789062 28.84375 -22 C 25.582031 -21.21875 22.222656 -20.765625 18.765625 -20.640625 C 13.234375 -20.390625 8.140625 -21.144531 3.484375 -22.90625 C -4.117188 -25.988281 -6.757812 -31.863281 -4.4375 -40.53125 C -2.226562 -48.007812 2.234375 -53.851562 8.953125 -58.0625 C 15.679688 -62.28125 22.628906 -64.328125 29.796875 -64.203125 C 29.796875 -64.203125 29.859375 -64.203125 29.984375 -64.203125 C 31.804688 -64.328125 33.535156 -64.203125 35.171875 -63.828125 C 37.929688 -62.816406 39.6875 -61.179688 40.4375 -58.921875 C 41.195312 -56.660156 40.695312 -54.144531 38.9375 -51.375 C 34.914062 -45.28125 29.445312 -41.890625 22.53125 -41.203125 C 17.945312 -40.753906 13.515625 -40.972656 9.234375 -41.859375 C 8.421875 -41.984375 7.695312 -41.757812 7.0625 -41.1875 C 6.4375 -40.625 6.0625 -39.9375 5.9375 -39.125 C 4.675781 -33.71875 6.34375 -30.257812 10.9375 -28.75 C 16.59375 -26.800781 22.46875 -26.800781 28.5625 -28.75 C 35.601562 -30.945312 42.296875 -35.09375 48.640625 -41.1875 C 54.992188 -47.289062 58.65625 -50.140625 59.625 -49.734375 C 60.601562 -49.328125 60.90625 -48.148438 60.53125 -46.203125 C 59.644531 -43.117188 57.378906 -39.785156 53.734375 -36.203125 Z M 13.578125 -51.375 C 13.203125 -50.9375 12.929688 -50.453125 12.765625 -49.921875 C 12.609375 -49.390625 12.816406 -48.898438 13.390625 -48.453125 C 15.585938 -47.203125 17.972656 -46.75 20.546875 -47.09375 C 23.128906 -47.4375 25.316406 -48.410156 27.109375 -50.015625 C 28.898438 -51.617188 29.671875 -53.582031 29.421875 -55.90625 C 29.222656 -56.71875 28.78125 -57.234375 28.09375 -57.453125 C 27.40625 -57.679688 26.710938 -57.734375 26.015625 -57.609375 C 21.367188 -56.785156 17.222656 -54.707031 13.578125 -51.375 Z M 13.578125 -51.375 "/></g></g></g><g fill="#000000" fill-opacity="1"><g transform="translate(1836.578081, 1230.066406)"><g/></g></g><g fill="#000000" fill-opacity="1"><g transform="translate(1936.811499, 1230.066406)"><g><path d="M 45.8125 -41.015625 L 38.1875 -41.203125 C 30.457031 -41.453125 22.003906 -42.078125 12.828125 -43.078125 C 12.703125 -43.078125 12.570312 -43.207031 12.4375 -43.46875 C 12.1875 -43.46875 11.984375 -43.578125 11.828125 -43.796875 C 11.671875 -44.015625 11.65625 -44.46875 11.78125 -45.15625 C 12.476562 -48.050781 13.515625 -49.5625 14.890625 -49.6875 C 22.242188 -50.6875 29.503906 -51.25 36.671875 -51.375 L 41.109375 -51.5625 L 70.140625 -51.5625 C 71.773438 -51.5625 73.347656 -51.4375 74.859375 -51.1875 C 75.984375 -50.875 76.140625 -49.273438 75.328125 -46.390625 C 74.441406 -43.492188 73.40625 -41.890625 72.21875 -41.578125 C 71.65625 -41.453125 71.085938 -41.390625 70.515625 -41.390625 L 66 -41.390625 C 59.582031 -41.140625 52.851562 -41.015625 45.8125 -41.015625 Z M 45.8125 -41.015625 "/></g></g></g><g mask="url(#8bbcafb137)"><g transform="matrix(1, 0, 0, 1, 247, 1506)"><g clip-path="url(#50b8a9e65d)"><g fill="#ffffff" fill-opacity="1"><g transform="translate(4.751649, 67.558183)"><g><path d="M 4.410156 0 L 16.671875 0 L 16.671875 -26.195312 L 59.097656 -26.195312 L 59.097656 -34.753906 L 16.671875 -34.753906 L 16.671875 -52.921875 L 64.300781 -52.921875 L 64.300781 -62.539062 L 4.410156 -62.539062 Z M 4.410156 0 "/></g></g></g><g fill="#ffffff" fill-opacity="1"><g transform="translate(90.044997, 67.558183)"><g><path d="M 39.605469 2.027344 C 61.566406 2.027344 75.769531 -8.910156 75.769531 -28.492188 L 75.769531 -62.539062 L 63.507812 -62.539062 L 63.507812 -28.84375 C 63.507812 -14.820312 54.070312 -7.761719 39.691406 -7.761719 C 25.402344 -7.761719 15.878906 -14.820312 15.878906 -28.84375 L 15.878906 -62.539062 L 3.527344 -62.539062 L 3.527344 -28.492188 C 3.527344 -8.910156 17.730469 2.027344 39.605469 2.027344 Z M 39.605469 2.027344 "/></g></g></g><g fill="#ffffff" fill-opacity="1"><g transform="translate(188.921637, 67.558183)"><g><path d="M 4.410156 0 L 56.714844 0 L 56.714844 -9.703125 L 16.671875 -9.703125 L 16.671875 -62.539062 L 4.410156 -62.539062 Z M 4.410156 0 "/></g></g></g><g fill="#ffffff" fill-opacity="1"><g transform="translate(265.923851, 67.558183)"><g><path d="M 4.410156 0 L 56.714844 0 L 56.714844 -9.703125 L 16.671875 -9.703125 L 16.671875 -62.539062 L 4.410156 -62.539062 Z M 4.410156 0 "/></g></g></g><g fill="#ffffff" fill-opacity="1"><g transform="translate(342.926066, 67.558183)"><g><path d="M 40.308594 2.117188 C 59.804688 2.117188 72.859375 -5.996094 72.859375 -17.992188 C 72.859375 -28.050781 64.832031 -33.429688 46.21875 -35.988281 L 31.578125 -38.015625 C 21.785156 -39.339844 17.640625 -41.808594 17.640625 -46.042969 C 17.640625 -51.777344 25.402344 -55.746094 36.253906 -55.746094 C 47.101562 -55.746094 57.070312 -51.335938 61.921875 -45.074219 L 67.652344 -52.21875 C 62.097656 -59.539062 50.011719 -64.65625 36.164062 -64.65625 C 18.257812 -64.65625 5.558594 -57.332031 5.558594 -45.25 C 5.558594 -35.546875 12.523438 -30.605469 28.84375 -28.492188 L 43.660156 -26.195312 C 55.65625 -24.519531 60.773438 -21.609375 60.773438 -16.933594 C 60.773438 -11.203125 52.835938 -6.96875 40.925781 -6.96875 C 26.375 -6.96875 12.964844 -13.144531 8.378906 -22.050781 L 1.765625 -14.996094 C 7.675781 -4.941406 22.933594 2.117188 40.308594 2.117188 Z M 40.308594 2.117188 "/></g></g></g><g fill="#ffffff" fill-opacity="1"><g transform="translate(437.127974, 67.558183)"><g><path d="M 28.578125 0 L 40.839844 0 L 40.839844 -52.921875 L 68.890625 -52.921875 L 68.890625 -62.539062 L 0.527344 -62.539062 L 0.527344 -52.921875 L 28.578125 -52.921875 Z M 28.578125 0 "/></g></g></g><g fill="#ffffff" fill-opacity="1"><g transform="translate(526.125843, 67.558183)"><g><path d="M 0.351562 0 L 13.144531 0 L 20.289062 -13.671875 L 59.449219 -13.671875 L 66.59375 0 L 79.472656 0 L 47.191406 -62.539062 L 32.902344 -62.539062 Z M 23.902344 -22.226562 L 39.867188 -53.628906 L 40.046875 -53.628906 L 55.921875 -22.226562 Z M 23.902344 -22.226562 "/></g></g></g><g fill="#ffffff" fill-opacity="1"><g transform="translate(625.531754, 67.558183)"><g><path d="M 46.484375 2.027344 C 66.773438 2.027344 82.382812 -7.320312 86.617188 -22.050781 L 75.238281 -24.699219 C 72.0625 -14.199219 61.039062 -7.496094 46.660156 -7.496094 C 27.695312 -7.496094 15.613281 -16.757812 15.613281 -31.226562 C 15.613281 -45.691406 26.636719 -54.953125 43.925781 -54.953125 C 56.453125 -54.953125 66.242188 -49.042969 69.242188 -39.691406 L 80.355469 -42.957031 C 75.769531 -56.097656 61.480469 -64.476562 43.660156 -64.476562 C 18.964844 -64.476562 3.351562 -51.511719 3.351562 -31.226562 C 3.351562 -10.761719 20.109375 2.027344 46.484375 2.027344 Z M 46.484375 2.027344 "/></g></g></g><g fill="#ffffff" fill-opacity="1"><g transform="translate(734.11081, 67.558183)"><g><path d="M 4.410156 0 L 16.671875 0 L 16.671875 -21.167969 L 27.433594 -29.285156 L 56.011719 0 L 71.710938 0 L 36.164062 -36.164062 L 71.003906 -62.539062 L 54.335938 -62.539062 L 16.757812 -34.046875 L 16.671875 -34.046875 L 16.671875 -62.539062 L 4.410156 -62.539062 Z M 4.410156 0 "/></g></g></g><g fill="#ffffff" fill-opacity="1"><g transform="translate(825.402049, 67.558183)"><g/></g></g><g fill="#ffffff" fill-opacity="1"><g transform="translate(870.474712, 67.558183)"><g><path d="M 4.410156 0 L 43.660156 0 C 67.300781 0 80.445312 -11.203125 80.445312 -31.226562 C 80.445312 -51.335938 67.300781 -62.539062 43.660156 -62.539062 L 4.410156 -62.539062 Z M 16.496094 -9.261719 L 16.496094 -53.101562 L 42.601562 -53.101562 C 59.1875 -53.101562 68.449219 -45.335938 68.449219 -31.226562 C 68.449219 -17.113281 59.1875 -9.261719 42.601562 -9.261719 Z M 16.496094 -9.261719 "/></g></g></g><g fill="#ffffff" fill-opacity="1"><g transform="translate(973.849798, 67.558183)"><g><path d="M 4.410156 0 L 67.476562 0 L 67.476562 -8.910156 L 16.316406 -8.910156 L 16.316406 -28.050781 L 63.066406 -28.050781 L 63.066406 -36.253906 L 16.316406 -36.253906 L 16.316406 -53.539062 L 66.59375 -53.539062 L 66.59375 -62.539062 L 4.410156 -62.539062 Z M 4.410156 0 "/></g></g></g><g fill="#ffffff" fill-opacity="1"><g transform="translate(1062.67131, 67.558183)"><g><path d="M 32.371094 0 L 46.042969 0 L 78.503906 -62.539062 L 65.359375 -62.539062 L 39.339844 -11.464844 L 39.164062 -11.464844 L 13.054688 -62.539062 L 0 -62.539062 Z M 32.371094 0 "/></g></g></g><g fill="#ffffff" fill-opacity="1"><g transform="translate(1160.754165, 67.558183)"><g><path d="M 4.410156 0 L 67.476562 0 L 67.476562 -8.910156 L 16.316406 -8.910156 L 16.316406 -28.050781 L 63.066406 -28.050781 L 63.066406 -36.253906 L 16.316406 -36.253906 L 16.316406 -53.539062 L 66.59375 -53.539062 L 66.59375 -62.539062 L 4.410156 -62.539062 Z M 4.410156 0 "/></g></g></g><g fill="#ffffff" fill-opacity="1"><g transform="translate(1249.575677, 67.558183)"><g><path d="M 4.410156 0 L 56.714844 0 L 56.714844 -9.703125 L 16.671875 -9.703125 L 16.671875 -62.539062 L 4.410156 -62.539062 Z M 4.410156 0 "/></g></g></g><g fill="#ffffff" fill-opacity="1"><g transform="translate(1326.57786, 67.558183)"><g><path d="M 46.835938 2.207031 C 72.769531 2.207031 90.410156 -11.378906 90.410156 -31.226562 C 90.410156 -50.984375 72.769531 -64.742188 46.835938 -64.742188 C 20.992188 -64.742188 3.351562 -50.984375 3.351562 -31.226562 C 3.351562 -11.378906 20.992188 2.207031 46.835938 2.207031 Z M 46.835938 -7.320312 C 28.402344 -7.320312 15.613281 -17.113281 15.613281 -31.226562 C 15.613281 -45.335938 28.402344 -55.128906 46.835938 -55.128906 C 65.273438 -55.128906 78.148438 -45.335938 78.148438 -31.226562 C 78.148438 -17.113281 65.273438 -7.320312 46.835938 -7.320312 Z M 46.835938 -7.320312 "/></g></g></g><g fill="#ffffff" fill-opacity="1"><g transform="translate(1439.919845, 67.558183)"><g><path d="M 4.410156 0 L 16.671875 0 L 16.671875 -21.609375 L 49.75 -21.609375 C 65.714844 -21.609375 74.621094 -29.109375 74.710938 -41.898438 C 74.710938 -54.953125 65.800781 -62.539062 49.835938 -62.539062 L 4.410156 -62.539062 Z M 16.671875 -30.078125 L 16.671875 -53.980469 L 46.75 -53.980469 C 56.804688 -53.980469 62.449219 -49.570312 62.449219 -41.984375 C 62.449219 -34.488281 56.804688 -30.078125 46.75 -30.078125 Z M 16.671875 -30.078125 "/></g></g></g><g fill="#ffffff" fill-opacity="1"><g transform="translate(1535.621233, 67.558183)"><g><path d="M 4.410156 0 L 67.476562 0 L 67.476562 -8.910156 L 16.316406 -8.910156 L 16.316406 -28.050781 L 63.066406 -28.050781 L 63.066406 -36.253906 L 16.316406 -36.253906 L 16.316406 -53.539062 L 66.59375 -53.539062 L 66.59375 -62.539062 L 4.410156 -62.539062 Z M 4.410156 0 "/></g></g></g><g fill="#ffffff" fill-opacity="1"><g transform="translate(1624.442745, 67.558183)"><g><path d="M 69.769531 1.765625 C 74.621094 1.765625 79.121094 -0.617188 81.765625 -3.882812 L 78.0625 -9.703125 C 76.738281 -7.675781 74.796875 -6.261719 72.859375 -6.261719 C 70.476562 -6.261719 69.242188 -7.9375 68.183594 -10.054688 L 63.773438 -18.964844 C 62.273438 -22.316406 60.246094 -24.875 57.246094 -26.460938 L 57.246094 -26.550781 C 68.710938 -27.785156 75.769531 -34.488281 75.769531 -43.839844 C 75.769531 -55.394531 66.683594 -62.539062 52.042969 -62.539062 L 4.410156 -62.539062 L 4.410156 0 L 16.671875 0 L 16.671875 -24.257812 L 42.164062 -24.257812 C 46.574219 -24.257812 50.277344 -21.523438 52.394531 -17.113281 L 57.15625 -6.96875 C 59.539062 -2.292969 63.15625 1.765625 69.769531 1.765625 Z M 16.671875 -32.722656 L 16.671875 -53.804688 L 49.484375 -53.804688 C 58.039062 -53.804688 63.507812 -49.660156 63.507812 -43.132812 C 63.507812 -36.871094 58.039062 -32.722656 49.484375 -32.722656 Z M 16.671875 -32.722656 "/></g></g></g><g fill="#ffffff" fill-opacity="1"><g transform="translate(1725.728917, 67.558183)"><g/></g></g></g></g></g></svg>